<?xml version="1.0" standalone="no"?>
<!DOCTYPE svg PUBLIC "-//W3C//DTD SVG 20010904//EN"
 "http://www.w3.org/TR/2001/REC-SVG-20010904/DTD/svg10.dtd">
<svg version="1.0" xmlns="http://www.w3.org/2000/svg"
 width="600.000000pt" height="315.000000pt" viewBox="0 0 600.000000 315.000000"
 preserveAspectRatio="xMidYMid meet">

<g transform="translate(0.000000,315.000000) scale(0.100000,-0.100000)"
fill="#000000" stroke="none">
<path d="M3621 2874 c-46 -85 -81 -157 -80 -158 2 -2 38 -19 79 -38 103 -47
266 -147 380 -232 110 -82 304 -267 395 -377 250 -298 436 -709 499 -1098 9
-52 17 -95 19 -97 1 -2 22 39 46 91 l44 95 113 0 c133 0 125 -13 90 140 -110
484 -351 917 -710 1275 -215 215 -417 363 -676 494 l-117 60 -82 -155z"/>
<path d="M3238 2152 l-58 -109 93 -46 c558 -278 914 -847 920 -1469 l1 -146
97 306 98 307 -40 120 c-131 397 -399 750 -744 980 -111 74 -275 165 -298 165
-6 0 -38 -49 -69 -108z"/>
<path d="M2906 1525 c-20 -36 -36 -67 -36 -69 0 -2 30 -21 68 -41 99 -55 190
-125 271 -211 62 -64 97 -112 178 -240 11 -17 12 -16 12 13 1 17 5 43 11 57 8
21 16 25 60 28 l51 3 -53 81 c-73 110 -157 204 -250 278 -80 64 -242 166 -264
166 -7 0 -28 -29 -48 -65z"/>
<path d="M795 998 c-8 -46 -145 -909 -145 -914 0 -2 58 -4 129 -4 l129 0 6 27
c3 16 15 84 26 153 11 69 23 137 26 153 l6 27 154 0 c151 0 154 0 159 23 11
52 25 142 25 164 l0 23 -156 0 c-143 0 -155 1 -150 18 3 9 8 35 11 57 13 82
-6 75 216 75 109 0 199 1 199 3 16 85 35 219 32 222 -3 3 -153 5 -333 5 l-328
0 -6 -32z"/>
<path d="M1536 1021 c-3 -4 -37 -208 -76 -452 -38 -244 -72 -454 -75 -466 l-5
-23 324 0 325 0 5 33 c3 17 10 59 16 91 5 33 10 70 10 83 l0 23 -190 0 -191 0
6 33 c19 109 105 661 105 673 0 11 -23 14 -124 14 -69 0 -127 -4 -130 -9z"/>
<path d="M3446 1022 c-3 -6 -38 -208 -76 -449 -38 -241 -72 -450 -74 -465 l-5
-28 128 0 c125 0 129 1 134 23 3 12 16 87 28 166 l22 144 84 -166 83 -167 151
0 151 0 -20 33 c-180 293 -203 346 -154 347 25 0 87 39 124 77 46 48 67 97 75
177 9 94 -16 169 -75 226 -74 71 -118 82 -363 88 -138 3 -209 1 -213 -6z m355
-238 c29 -26 26 -98 -6 -129 -21 -22 -33 -25 -90 -25 -36 0 -65 4 -65 8 0 10
18 117 26 151 5 22 8 23 61 18 31 -3 63 -13 74 -23z"/>
<path d="M4435 1018 c-16 -44 -295 -924 -295 -930 0 -4 58 -8 129 -8 l130 0
24 78 c118 385 143 462 147 462 3 0 28 -122 55 -270 l50 -271 70 3 69 3 131
274 130 274 7 -84 c3 -46 6 -171 7 -276 l1 -193 130 0 130 0 0 38 c0 20 -9
226 -20 457 -11 231 -20 428 -20 438 0 16 -12 17 -142 15 l-141 -3 -106 -227
c-58 -125 -108 -228 -111 -228 -3 0 -24 102 -46 228 l-40 227 -142 3 c-109 2
-144 0 -147 -10z"/>
<path d="M2627 998 c-47 -76 -457 -863 -457 -877 0 -40 7 -41 491 -41 257 0
474 3 483 6 9 3 16 17 16 30 0 19 -400 791 -456 882 -9 13 -24 22 -39 22 -15
0 -30 -9 -38 -22z"/>
</g>
</svg>
