<?xml version="1.0" standalone="no"?>
<!DOCTYPE svg PUBLIC "-//W3C//DTD SVG 20010904//EN"
 "http://www.w3.org/TR/2001/REC-SVG-20010904/DTD/svg10.dtd">
<svg version="1.0" xmlns="http://www.w3.org/2000/svg"
 width="800.000000pt" height="600.000000pt" viewBox="0 0 800.000000 600.000000"
 preserveAspectRatio="xMidYMid meet">

<g transform="translate(0.000000,600.000000) scale(0.100000,-0.100000)"
fill="#000000" stroke="none">
<path d="M3800 4800 c0 -27 -3 -30 -30 -30 l-30 0 0 -64 0 -65 -32 -3 c-30 -3
-33 -6 -36 -40 -3 -34 -6 -38 -32 -38 -29 0 -29 -1 -32 -62 -3 -63 -3 -63 -35
-66 l-33 -3 0 -65 0 -64 -30 0 c-27 0 -30 -3 -30 -30 0 -27 3 -30 30 -30 27 0
30 -3 30 -30 0 -29 0 -29 68 -32 l67 -3 3 -32 3 -33 95 0 94 0 0 -35 0 -35 65
0 65 0 0 -30 c0 -28 3 -30 35 -30 33 0 35 -2 35 -35 l0 -35 65 0 65 0 0 -29
c0 -26 4 -30 33 -33 28 -3 32 -7 35 -35 l3 -33 59 0 59 0 3 -32 c3 -29 7 -33
36 -36 28 -3 32 -7 32 -33 0 -25 4 -29 29 -29 26 0 30 -4 33 -32 3 -29 7 -33
36 -36 28 -3 32 -7 32 -33 0 -25 4 -29 29 -29 29 0 30 -1 36 -65 7 -63 8 -65
36 -65 24 0 28 -4 31 -32 3 -29 7 -33 36 -36 28 -3 32 -7 32 -33 0 -26 3 -29
30 -29 l30 0 0 -65 0 -65 35 0 35 0 0 -65 c0 -65 0 -65 29 -65 28 0 29 -2 36
-64 6 -61 8 -65 33 -68 22 -2 28 -9 30 -35 l3 -33 -65 0 -66 0 0 -35 0 -35
-64 0 -64 0 -7 -60 c-7 -58 -8 -60 -36 -60 l-29 0 0 95 0 95 -165 0 -165 0 0
35 c0 32 -2 35 -30 35 -30 0 -30 0 -30 59 l0 60 -32 3 c-29 3 -33 7 -36 36 -3
28 -7 32 -32 32 -25 0 -29 4 -32 33 -3 28 -7 32 -35 35 -30 3 -33 6 -33 38 0
31 -2 34 -30 34 -27 0 -30 3 -30 30 0 28 -3 30 -35 30 -32 0 -35 2 -35 30 0
27 -3 30 -29 30 -26 0 -30 4 -33 33 -3 28 -7 32 -35 35 -29 3 -33 7 -33 33 0
27 -3 29 -35 29 -33 0 -35 2 -35 35 l0 35 -65 0 -65 0 0 29 c0 26 -4 30 -32
33 -29 3 -33 7 -36 36 l-3 32 -65 0 -64 0 0 30 c0 29 -1 29 -62 32 -63 3 -63
3 -66 36 l-3 32 -65 0 -64 0 0 -65 0 -65 -30 0 c-28 0 -30 -3 -30 -35 0 -33
-2 -35 -35 -35 l-35 0 0 -65 0 -65 -30 0 c-27 0 -30 -3 -30 -30 l0 -30 65 0
65 0 0 -35 0 -35 65 0 65 0 0 -30 0 -30 65 0 65 0 0 -35 0 -35 65 0 65 0 0
-30 c0 -28 3 -30 35 -30 33 0 35 -2 35 -35 0 -32 2 -35 30 -35 27 0 30 -3 30
-30 0 -28 3 -30 35 -30 33 0 35 -2 35 -35 0 -32 2 -35 29 -35 26 0 30 -4 33
-32 3 -29 7 -33 36 -36 28 -3 32 -7 32 -33 0 -25 4 -29 29 -29 28 0 29 -2 36
-65 6 -64 7 -65 36 -65 27 0 29 -3 29 -35 0 -33 2 -35 35 -35 l35 0 0 -65 0
-65 30 0 30 0 0 -65 0 -65 35 0 35 0 0 -142 c0 -79 -3 -167 -6 -195 -6 -50 -8
-53 -35 -53 l-29 0 0 -135 0 -135 -30 0 -30 0 0 -112 c0 -62 -3 -137 -6 -166
-6 -49 -8 -52 -35 -52 -29 0 -29 -1 -29 -59 l0 -58 46 -7 c60 -8 229 -8 477 1
l197 6 2 521 3 521 33 3 c28 3 32 7 32 33 0 25 4 29 29 29 26 0 30 4 33 33 l3
32 163 3 162 2 0 -100 0 -100 35 0 35 0 0 -297 c0 -164 -3 -342 -7 -395 l-6
-98 -29 0 -28 0 0 -100 0 -100 178 0 c99 0 247 3 330 7 l152 6 0 64 0 63 30 0
30 0 0 474 c0 260 3 494 6 520 6 43 9 46 35 46 26 0 29 3 29 35 l0 35 65 0
c65 0 65 0 65 29 0 27 3 29 51 34 28 4 71 4 95 0 40 -5 44 -8 44 -34 0 -26 3
-29 34 -29 l34 0 4 -72 c2 -40 1 -160 -1 -265 l-3 -193 -29 0 c-29 0 -29 0
-29 -62 0 -35 -3 -107 -7 -160 l-6 -98 -28 0 -29 0 -2 -163 -3 -162 -32 -3
c-29 -3 -33 -7 -33 -31 0 -27 3 -29 53 -35 68 -8 301 -8 360 0 l47 7 2 161 3
161 26 3 c32 4 39 32 39 170 l0 92 30 0 30 0 0 114 c0 62 3 134 6 160 6 43 9
46 35 46 l29 0 0 70 0 70 29 0 c29 0 30 1 36 65 7 63 8 65 36 65 26 0 29 4 29
30 0 28 3 30 35 30 32 0 35 3 35 29 0 28 2 29 66 36 36 4 92 4 125 0 57 -7 59
-8 59 -36 0 -26 3 -29 35 -29 l35 0 0 -230 0 -230 -30 0 -30 0 0 -130 0 -130
-29 0 c-27 0 -29 -3 -35 -53 -3 -28 -6 -103 -6 -164 l0 -113 -30 0 -30 0 0
-100 0 -100 195 0 195 0 0 28 c0 15 3 44 6 64 5 31 11 37 33 40 l26 3 3 133 3
132 29 0 30 0 0 130 0 130 30 0 c17 0 31 6 32 13 0 6 2 17 3 22 2 6 3 74 4
153 l1 142 30 0 30 0 0 160 0 160 -30 0 c-29 0 -29 0 -32 68 l-3 67 -32 3
c-29 3 -33 7 -33 32 0 27 -2 28 -59 35 -55 6 -60 9 -63 33 l-3 27 -102 3 -103
3 0 29 c0 27 -3 30 -30 30 -27 0 -30 -3 -30 -30 l0 -30 -130 0 -130 0 0 -35 0
-35 -64 0 -64 0 -7 -59 -7 -59 -45 -6 c-80 -11 -83 -10 -83 29 0 32 -2 35 -30
35 -27 0 -30 3 -30 29 0 26 -4 30 -32 33 -29 3 -33 7 -36 36 l-3 32 -260 0
-259 0 0 -35 0 -35 -65 0 -65 0 0 -30 c0 -28 -3 -30 -35 -30 l-35 0 0 65 0 65
-65 0 -65 0 0 65 0 65 -35 0 -35 0 0 65 0 65 -30 0 -30 0 0 94 0 95 -32 3
c-33 3 -33 3 -36 66 -3 61 -3 62 -32 62 -26 0 -29 4 -32 38 -3 34 -6 37 -35
40 l-33 3 0 60 c0 59 0 59 -30 59 -28 0 -30 3 -30 35 0 33 -2 35 -35 35 l-35
0 0 65 0 65 -35 0 c-32 0 -35 2 -35 29 0 25 -4 30 -27 33 -23 2 -29 8 -31 35
-3 28 -7 32 -35 35 -28 3 -32 7 -35 36 -3 28 -7 32 -33 32 -25 0 -29 4 -29 29
0 26 -4 30 -32 33 -29 3 -33 7 -36 36 -3 28 -7 32 -33 32 -25 0 -29 4 -29 29
0 26 -4 30 -32 33 -29 3 -33 7 -36 36 -3 28 -7 32 -33 32 -26 0 -29 3 -29 30
0 28 -3 30 -35 30 -33 0 -35 2 -35 35 l0 35 -65 0 -65 0 0 35 c0 33 -2 35 -35
35 -32 0 -35 2 -35 30 0 29 -1 29 -62 32 -63 3 -63 3 -66 36 l-3 32 -60 0
c-59 0 -59 0 -59 29 0 27 -3 30 -37 33 -33 3 -38 7 -41 30 -3 25 -7 27 -68 33
-62 7 -64 8 -64 36 l0 29 -95 0 -95 0 0 35 c0 33 -2 35 -35 35 -32 0 -35 -2
-35 -30z"/>
<path d="M850 3550 c0 -28 -3 -30 -35 -30 -32 0 -35 -3 -35 -29 0 -28 -2 -29
-59 -36 l-59 -7 -7 -59 c-7 -57 -8 -59 -36 -59 -26 0 -29 -3 -29 -35 0 -32 -3
-35 -29 -35 -29 0 -29 -1 -36 -70 -7 -69 -7 -70 -36 -70 l-29 0 0 -130 0 -130
-30 0 c-27 0 -30 -3 -30 -30 l0 -30 -164 0 -164 0 -7 -124 c-4 -69 -4 -130 0
-135 4 -7 55 -11 136 -11 l129 0 0 -160 0 -160 -29 0 c-26 0 -29 -3 -35 -46
-3 -26 -6 -100 -6 -165 l0 -119 -30 0 -30 0 0 -114 c0 -62 -3 -134 -6 -159 -6
-40 -10 -46 -33 -49 l-26 -3 -3 -132 -3 -133 -29 0 c-26 0 -30 -4 -30 -29 0
-26 3 -29 46 -35 60 -8 298 -8 358 0 l46 7 0 41 c0 22 3 65 6 94 6 49 8 52 35
52 l29 0 0 165 0 165 29 0 c27 0 29 3 35 53 3 28 6 100 6 160 l0 107 30 0 30
0 0 135 0 135 29 0 c27 0 29 3 35 53 3 28 6 71 6 93 l0 42 189 3 c104 2 191 6
194 9 3 3 6 61 8 130 l4 125 -167 3 -168 2 0 49 c0 26 3 69 6 94 6 40 10 46
33 49 25 3 26 6 29 71 3 67 3 67 32 67 27 0 30 3 30 30 0 28 3 30 35 30 33 0
35 2 35 35 l0 35 130 0 130 0 0 65 0 65 35 0 35 0 0 95 0 95 -265 0 -265 0 0
-30z"/>
<path d="M1640 3455 c0 -65 0 -65 -29 -65 -27 0 -29 -3 -35 -52 -3 -29 -6
-104 -6 -165 l0 -113 -30 0 -30 0 0 -122 c0 -169 -6 -196 -39 -200 l-26 -3 -3
-162 -2 -163 -30 0 -29 0 -3 -132 -3 -133 -27 -3 c-16 -2 -29 -9 -29 -15 -1
-7 -2 -16 -4 -22 -1 -5 -3 -58 -3 -117 l-2 -108 -30 0 -30 0 -2 -162 -3 -163
-32 -3 -33 -3 0 -165 0 -164 195 0 194 0 3 68 3 67 33 3 32 3 0 160 0 159 30
0 30 0 0 83 c0 45 3 106 6 135 6 49 8 52 35 52 l29 0 0 195 0 195 29 0 c27 0
29 3 35 53 3 28 6 87 6 130 l0 77 30 0 30 0 0 165 0 165 29 0 c26 0 29 3 35
46 3 26 6 100 6 165 l0 119 30 0 30 0 0 130 0 130 -195 0 -195 0 0 -65z"/>
<path d="M2755 2865 c-7 -63 -8 -65 -36 -65 -26 0 -29 -3 -29 -35 0 -32 -2
-35 -29 -35 -29 0 -30 -1 -36 -65 -7 -63 -8 -65 -36 -65 -29 0 -29 0 -29 -65
l0 -65 -35 0 -35 0 0 -65 0 -65 -30 0 -30 0 0 -65 0 -65 -35 0 -35 0 0 -65 c0
-65 0 -65 -29 -65 -28 0 -29 -2 -36 -65 -6 -63 -8 -65 -35 -65 -27 0 -28 -2
-35 -65 -6 -60 -8 -65 -31 -65 -21 0 -24 -5 -24 -35 0 -33 -2 -35 -35 -35
l-35 0 0 -65 0 -65 -29 0 c-29 0 -30 -1 -36 -65 -7 -63 -8 -65 -36 -65 -29 0
-29 0 -29 -64 l0 -65 -32 -3 c-33 -3 -33 -3 -36 -65 l-3 -63 921 0 920 0 0 49
c0 26 -3 69 -6 95 -6 43 -9 46 -35 46 -29 0 -29 0 -29 65 0 65 0 65 -29 65
-28 0 -29 2 -36 65 -6 64 -7 65 -36 65 -27 0 -29 3 -29 35 0 32 -3 35 -29 35
-28 0 -29 2 -36 65 -6 64 -7 65 -36 65 l-29 0 0 65 0 65 -29 0 c-29 0 -30 1
-36 65 -7 63 -8 65 -36 65 -29 0 -29 0 -29 65 l0 65 -35 0 -35 0 0 65 c0 65 0
65 -29 65 -28 0 -29 2 -36 65 -6 64 -7 65 -36 65 l-29 0 0 65 0 65 -30 0 c-28
0 -30 3 -30 34 0 32 -3 35 -32 38 l-33 3 -3 68 c-3 67 -3 67 -32 67 -27 0 -30
3 -30 30 l0 30 -64 0 -64 0 -7 -65z"/>
<path d="M7810 1520 c0 -25 4 -30 25 -30 21 0 25 5 25 30 0 25 -4 30 -25 30
-21 0 -25 -5 -25 -30z"/>
<path d="M7740 1355 l0 -65 65 0 65 0 0 65 0 65 -65 0 -65 0 0 -65z"/>
</g>
</svg>
