<?xml version="1.0" standalone="no"?>
<!DOCTYPE svg PUBLIC "-//W3C//DTD SVG 20010904//EN"
 "http://www.w3.org/TR/2001/REC-SVG-20010904/DTD/svg10.dtd">
<svg version="1.0" xmlns="http://www.w3.org/2000/svg"
 width="512.000000pt" height="512.000000pt" viewBox="0 0 512.000000 512.000000"
 preserveAspectRatio="xMidYMid meet">

<g transform="translate(0.000000,512.000000) scale(0.100000,-0.100000)"
fill="#000000" stroke="none">
<path d="M2657 4430 c-443 -43 -853 -236 -1159 -547 -238 -241 -385 -489 -473
-795 -60 -206 -69 -278 -69 -528 0 -250 9 -322 69 -530 59 -204 162 -411 293
-590 79 -107 310 -333 422 -412 52 -37 160 -101 240 -141 540 -273 1171 -271
1703 6 114 59 147 92 147 145 0 52 -251 486 -301 520 -62 43 -156 15 -185 -55
-19 -44 -12 -66 57 -186 28 -49 50 -90 48 -92 -12 -10 -140 -58 -216 -80 -131
-38 -253 -55 -400 -55 -154 0 -143 -12 -117 129 13 67 14 93 5 123 -21 68
-107 106 -169 74 -47 -24 -60 -52 -83 -167 -11 -56 -22 -105 -25 -108 -15 -16
-284 96 -389 162 -102 64 -265 198 -265 217 0 4 38 40 85 79 69 59 85 78 91
108 10 53 -13 112 -55 140 -62 42 -100 28 -228 -84 l-62 -55 -41 64 c-113 173
-220 482 -220 634 l0 34 115 0 c133 0 163 10 189 64 20 43 20 69 0 112 -26 54
-56 64 -190 64 l-117 0 6 68 c15 154 88 375 179 538 140 249 393 483 658 608
100 46 236 93 245 84 3 -2 14 -51 24 -108 19 -106 38 -144 82 -168 54 -29 144
8 169 69 11 26 10 47 -4 127 -25 146 -36 132 112 132 146 0 279 -18 405 -55
75 -21 204 -70 215 -80 2 -2 -21 -48 -52 -101 -69 -120 -74 -165 -26 -213 50
-50 136 -53 178 -8 11 12 78 121 149 242 170 292 171 312 8 401 -300 164 -708
247 -1048 214z"/>
<path d="M1819 3411 c-28 -29 -35 -58 -21 -93 4 -9 158 -176 342 -372 l335
-357 7 -62 c12 -121 82 -224 181 -268 74 -33 201 -34 272 -1 63 29 129 93 163
157 37 72 42 188 12 268 -47 124 -162 198 -315 202 l-80 2 -399 277 c-441 305
-439 304 -497 247z"/>
<path d="M3768 3279 c-17 -9 -18 -54 -18 -719 0 -691 0 -710 19 -720 26 -13
356 -13 382 0 19 10 19 29 19 720 0 691 0 710 -19 720 -26 13 -360 13 -383 -1z"/>
</g>
</svg>
